<svg id="svg" version="1.1" xmlns="http://www.w3.org/2000/svg" xmlns:xlink="http://www.w3.org/1999/xlink" width="400" height="400" viewBox="0, 0, 400,400"><g id="svgg"><path id="path0" d="M188.086 66.448 C 119.670 72.801,65.226 131.707,65.192 199.414 C 65.146 291.308,155.875 356.160,243.654 326.977 C 275.037 316.544,305.160 290.417,320.019 260.742 L 322.171 256.445 320.231 254.297 C 299.430 231.263,294.656 190.800,309.192 160.742 C 311.802 155.346,314.531 150.939,318.489 145.729 L 321.585 141.654 320.128 138.698 C 296.954 91.674,241.745 61.465,188.086 66.448 M207.031 96.489 C 240.700 99.002,269.550 115.386,287.196 142.013 C 289.744 145.858,293.974 153.444,293.698 153.674 C 293.619 153.739,287.227 157.011,279.492 160.944 C 271.758 164.877,264.466 168.602,263.288 169.223 C 262.110 169.843,261.090 170.183,261.021 169.978 C 260.614 168.756,255.976 161.839,253.299 158.462 C 228.771 127.514,182.462 124.527,153.688 152.036 C 129.435 175.221,125.998 211.822,145.519 239.005 C 174.455 279.296,236.703 275.340,260.468 231.699 L 261.914 229.043 271.094 234.650 C 276.143 237.733,283.138 242.024,286.638 244.185 L 293.003 248.115 291.585 250.718 C 264.383 300.655,199.410 319.000,149.010 290.973 C 83.024 254.277,76.226 163.678,136.035 118.049 C 157.394 101.754,181.104 94.554,207.031 96.489 M210.472 169.783 C 237.723 177.590,241.462 214.543,216.318 227.559 C 202.369 234.781,185.098 230.472,176.303 217.578 C 159.916 193.555,182.616 161.803,210.472 169.783 " stroke="none" fill="#f45a1e" fill-rule="evenodd"></path><path id="path1" d="M0.000 200.000 L 0.000 400.000 200.000 400.000 L 400.000 400.000 400.000 200.000 L 400.000 0.000 200.000 0.000 L 0.000 0.000 0.000 200.000 M215.430 66.600 C 259.128 71.637,299.534 99.023,319.475 137.118 L 321.822 141.602 318.538 145.898 C 294.385 177.504,294.868 222.956,319.681 253.431 L 322.315 256.667 319.821 261.439 C 300.866 297.703,265.989 323.946,226.563 331.613 C 142.863 347.888,64.881 284.056,65.061 199.414 C 65.227 120.777,136.823 57.539,215.430 66.600 M184.857 97.279 C 141.270 103.875,105.616 137.466,97.272 179.795 C 86.988 231.970,116.961 282.545,167.915 298.991 C 215.131 314.231,267.940 293.711,291.205 251.085 C 292.862 248.048,292.896 248.176,289.950 246.396 C 288.710 245.647,281.899 241.479,274.815 237.135 C 267.731 232.790,261.871 229.427,261.792 229.662 C 258.939 238.223,244.403 253.187,233.140 259.159 C 179.228 287.747,116.934 236.396,136.088 179.155 C 154.475 124.205,228.806 116.624,259.184 166.602 C 260.229 168.320,261.140 169.801,261.208 169.891 C 261.276 169.982,264.188 168.597,267.678 166.812 C 271.168 165.028,278.330 161.367,283.594 158.676 C 288.857 155.985,293.249 153.712,293.352 153.625 C 294.186 152.918,285.249 138.902,279.943 132.595 C 257.804 106.280,219.466 92.041,184.857 97.279 M195.654 169.343 C 172.754 174.500,163.222 202.127,178.228 219.847 C 196.973 241.983,232.956 228.811,232.982 199.805 C 233.000 180.103,214.589 165.080,195.654 169.343 " stroke="none" fill="#fbfbfb" fill-rule="evenodd"></path><path id="path2" d="M95.056 200.977 C 95.057 202.695,95.126 203.350,95.208 202.431 C 95.291 201.512,95.290 200.106,95.206 199.306 C 95.122 198.506,95.054 199.258,95.056 200.977 M294.321 295.410 L 292.383 297.461 294.434 295.522 C 296.339 293.721,296.664 293.359,296.372 293.359 C 296.310 293.359,295.387 294.282,294.321 295.410 " stroke="none" fill="#fab296" fill-rule="evenodd"></path><path id="path3" d="M196.978 65.905 C 197.572 65.995,198.451 65.993,198.931 65.900 C 199.412 65.807,198.926 65.734,197.852 65.737 C 196.777 65.740,196.384 65.816,196.978 65.905 M201.066 65.907 C 201.759 65.993,202.989 65.995,203.800 65.910 C 204.610 65.826,204.043 65.755,202.539 65.753 C 201.035 65.751,200.372 65.821,201.066 65.907 M196.582 96.381 C 197.603 96.461,199.272 96.461,200.293 96.381 C 201.313 96.300,200.479 96.235,198.438 96.235 C 196.396 96.235,195.562 96.300,196.582 96.381 M296.859 106.738 C 297.816 107.759,298.651 108.594,298.714 108.594 C 299.007 108.594,298.697 108.243,296.973 106.624 L 295.117 104.883 296.859 106.738 M198.926 133.097 C 199.731 133.181,201.050 133.181,201.855 133.097 C 202.661 133.013,202.002 132.944,200.391 132.944 C 198.779 132.944,198.120 133.013,198.926 133.097 M132.553 200.000 C 132.553 201.611,132.622 202.271,132.706 201.465 C 132.791 200.659,132.791 199.341,132.706 198.535 C 132.622 197.729,132.553 198.389,132.553 200.000 M297.436 292.285 L 296.289 293.555 297.559 292.407 C 298.257 291.776,298.828 291.205,298.828 291.138 C 298.828 290.836,298.506 291.102,297.436 292.285 " stroke="none" fill="#fbd8c8" fill-rule="evenodd"></path><path id="path4" d="M274.023 126.172 C 274.863 127.031,275.637 127.734,275.744 127.734 C 275.852 127.734,275.253 127.031,274.414 126.172 C 273.575 125.313,272.800 124.609,272.693 124.609 C 272.586 124.609,273.184 125.313,274.023 126.172 M124.790 127.832 L 122.852 129.883 124.902 127.944 C 126.030 126.878,126.953 125.955,126.953 125.894 C 126.953 125.602,126.591 125.926,124.790 127.832 M201.079 168.636 C 201.565 168.729,202.268 168.726,202.641 168.628 C 203.015 168.530,202.617 168.454,201.758 168.458 C 200.898 168.462,200.593 168.542,201.079 168.636 M64.965 196.289 C 64.967 197.578,65.040 198.058,65.127 197.356 C 65.214 196.654,65.212 195.600,65.123 195.013 C 65.034 194.426,64.963 195.000,64.965 196.289 M64.955 202.148 C 64.958 203.223,65.034 203.616,65.124 203.022 C 65.214 202.428,65.211 201.549,65.119 201.069 C 65.026 200.588,64.953 201.074,64.955 202.148 M223.999 221.973 L 222.852 223.242 224.121 222.095 C 224.819 221.464,225.391 220.893,225.391 220.825 C 225.391 220.524,225.068 220.789,223.999 221.973 " stroke="none" fill="#f4947c" fill-rule="evenodd"></path></g></svg>